<svg width="19" height="21" viewBox="0 0 19 21" fill="none" xmlns="http://www.w3.org/2000/svg">
<path d="M9.09716 11.1236C8.74917 11.1249 8.41126 11.2405 8.13536 11.4526C7.85947 11.6647 7.66088 11.9616 7.57011 12.2975C7.47935 12.6335 7.50143 12.9899 7.63297 13.3121C7.76451 13.6343 7.99823 13.9043 8.29819 14.0807V16.3461H9.91562V14.0807C10.1529 13.9404 10.3499 13.741 10.4873 13.5019C10.6248 13.2629 10.698 12.9924 10.7 12.7166V12.7166C10.7 12.5066 10.6585 12.2987 10.5778 12.1047C10.4971 11.9108 10.3789 11.7348 10.2299 11.5867C10.081 11.4386 9.90421 11.3215 9.7098 11.242C9.51539 11.1625 9.30719 11.1223 9.09716 11.1236V11.1236Z" stroke="#575DFB" stroke-linecap="round" stroke-linejoin="round"/>
<path d="M15.0844 7.46484H3.10462C1.94227 7.46484 1 8.40711 1 9.56946V17.8954C1 19.0577 1.94227 20 3.10462 20H15.0844C16.2467 20 17.189 19.0577 17.189 17.8954V9.56946C17.189 8.40711 16.2467 7.46484 15.0844 7.46484Z" stroke="#575DFB" stroke-width="2" stroke-linecap="round" stroke-linejoin="round"/>
<path d="M3.90869 7.46487V6.19333C3.90869 4.81598 4.45584 3.49503 5.42978 2.52109C6.40372 1.54715 7.72467 1 9.10202 1C10.4794 1 11.8003 1.54715 12.7743 2.52109C13.7482 3.49503 14.2954 4.81598 14.2954 6.19333V7.46487" stroke="#575DFB" stroke-width="2" stroke-linecap="round" stroke-linejoin="round"/>
</svg>
