<svg width="20" height="20" viewBox="0 0 20 20" fill="none" xmlns="http://www.w3.org/2000/svg">
<path d="M2.1875 3.75C1.93886 3.75 1.7004 3.84877 1.52459 4.02459C1.34877 4.2004 1.25 4.43886 1.25 4.6875C1.25 4.93614 1.34877 5.1746 1.52459 5.35041C1.7004 5.52623 1.93886 5.625 2.1875 5.625H17.8125C18.0611 5.625 18.2996 5.52623 18.4754 5.35041C18.6512 5.1746 18.75 4.93614 18.75 4.6875C18.75 4.43886 18.6512 4.2004 18.4754 4.02459C18.2996 3.84877 18.0611 3.75 17.8125 3.75H2.1875ZM2.1875 7.5C1.93886 7.5 1.7004 7.59877 1.52459 7.77459C1.34877 7.9504 1.25 8.18886 1.25 8.4375C1.25 8.68614 1.34877 8.9246 1.52459 9.10041C1.7004 9.27623 1.93886 9.375 2.1875 9.375H17.8125C18.0611 9.375 18.2996 9.27623 18.4754 9.10041C18.6512 8.9246 18.75 8.68614 18.75 8.4375C18.75 8.18886 18.6512 7.9504 18.4754 7.77459C18.2996 7.59877 18.0611 7.5 17.8125 7.5H2.1875ZM1.25 12.1875C1.25 11.9389 1.34877 11.7004 1.52459 11.5246C1.7004 11.3488 1.93886 11.25 2.1875 11.25H17.8125C18.0611 11.25 18.2996 11.3488 18.4754 11.5246C18.6512 11.7004 18.75 11.9389 18.75 12.1875C18.75 12.4361 18.6512 12.6746 18.4754 12.8504C18.2996 13.0262 18.0611 13.125 17.8125 13.125H2.1875C1.93886 13.125 1.7004 13.0262 1.52459 12.8504C1.34877 12.6746 1.25 12.4361 1.25 12.1875ZM2.1875 15C1.93886 15 1.7004 15.0988 1.52459 15.2746C1.34877 15.4504 1.25 15.6889 1.25 15.9375C1.25 16.1861 1.34877 16.4246 1.52459 16.6004C1.7004 16.7762 1.93886 16.875 2.1875 16.875H12.8125C13.0611 16.875 13.2996 16.7762 13.4754 16.6004C13.6512 16.4246 13.75 16.1861 13.75 15.9375C13.75 15.6889 13.6512 15.4504 13.4754 15.2746C13.2996 15.0988 13.0611 15 12.8125 15H2.1875Z" fill="#575DFB"/>
</svg>
