<svg width="24" height="24" viewBox="0 0 24 24" fill="none" xmlns="http://www.w3.org/2000/svg">
<path d="M2 7V15C2 15.5304 2.21071 16.0391 2.58579 16.4142C2.96086 16.7893 3.46957 17 4 17H5M2 7V5C2 4.46957 2.21071 3.96086 2.58579 3.58579C2.96086 3.21071 3.46957 3 4 3H6M2 7C3.06087 7 4.07828 6.57857 4.82843 5.82843C5.57857 5.07828 6 4.06087 6 3M6 3H19M9.764 12C9.2531 11.4285 8.98037 10.683 9.00182 9.91672C9.02326 9.15041 9.33725 8.42139 9.87932 7.87932C10.4214 7.33725 11.1504 7.02326 11.9167 7.00182C12.683 6.98037 13.4285 7.2531 14 7.764M2 20L20 2M21.22 18.047L21.769 11.786C21.844 10.921 21.171 10.156 20.265 10.076L19.445 10.005M17.666 20.891L19.306 21.035C20.212 21.114 21.008 20.477 21.084 19.613L21.221 18.047C19.408 17.889 17.817 19.162 17.666 20.891ZM17.666 20.891L7 19.958M11.347 16.481C11.756 17.001 12.287 17.266 13.017 17.33C14.376 17.449 15.57 16.494 15.683 15.197C15.744 14.501 15.598 13.928 15.132 13.454" stroke="#575DFB" stroke-width="2" stroke-linecap="round" stroke-linejoin="round"/>
</svg>
