<svg width="26" height="26" viewBox="0 0 26 26" fill="none" xmlns="http://www.w3.org/2000/svg">
<path d="M23.5191 21.9809L21.9808 23.5192C21.7778 23.721 21.5032 23.8343 21.217 23.8343C20.9308 23.8343 20.6563 23.721 20.4533 23.5192L7.5833 10.6709C7.23101 10.773 6.86669 10.8276 6.49996 10.8334C5.81021 10.8329 5.13054 10.6678 4.51745 10.3517C3.90437 10.0357 3.37559 9.57783 2.97508 9.01626C2.57457 8.4547 2.3139 7.80564 2.21474 7.12305C2.11558 6.44046 2.18079 5.74406 2.40496 5.09175L5.15663 7.84341L5.7308 7.26925L7.26913 5.73091L7.8433 5.15675L5.09163 2.40508C5.74394 2.18091 6.44034 2.11569 7.12293 2.21485C7.80552 2.31402 8.45458 2.57469 9.01614 2.9752C9.57771 3.37571 10.0356 3.90449 10.3516 4.51757C10.6677 5.13065 10.8328 5.81033 10.8333 6.50008C10.8275 6.86681 10.7729 7.23113 10.6708 7.58342L23.5191 20.4534C23.7209 20.6564 23.8342 20.931 23.8342 21.2172C23.8342 21.5034 23.7209 21.7779 23.5191 21.9809ZM2.4808 20.4534C2.27903 20.6564 2.16577 20.931 2.16577 21.2172C2.16577 21.5034 2.27903 21.7779 2.4808 21.9809L4.01913 23.5192C4.22211 23.721 4.49668 23.8343 4.78288 23.8343C5.06908 23.8343 5.34365 23.721 5.54663 23.5192L11.4725 17.6042L8.40663 14.5384M21.6666 2.16675L17.3333 4.33341V6.50008L14.9825 8.85091L17.1491 11.0176L19.5 8.66675H21.6666L23.8333 4.33341L21.6666 2.16675Z" fill="white"/>
</svg>
