<svg width="20" height="20" viewBox="0 0 20 20" fill="none" xmlns="http://www.w3.org/2000/svg">
<path d="M14.21 12.1731C14.21 13.0131 14.449 13.3481 15.074 13.3481C16.467 13.3481 17.354 11.5731 17.354 8.62111C17.354 4.10911 14.066 1.94911 9.961 1.94911C5.738 1.94911 1.897 4.78111 1.897 10.1331C1.897 15.2451 5.257 18.0291 10.417 18.0291C12.169 18.0291 13.345 17.8371 15.144 17.2371L15.53 18.8441C13.754 19.4211 11.856 19.5881 10.393 19.5881C3.625 19.5881 0 15.8681 0 10.1321C0 4.34811 4.201 0.412109 9.985 0.412109C16.009 0.412109 19.2 4.01211 19.2 8.42811C19.2 12.1721 18.025 15.0281 14.329 15.0281C12.648 15.0281 11.545 14.3561 11.401 12.8671C10.969 14.5231 9.817 15.0281 8.256 15.0281C6.168 15.0281 4.416 13.4191 4.416 10.1801C4.416 6.91611 5.953 4.90011 8.713 4.90011C10.177 4.90011 11.089 5.47611 11.495 6.38811L12.192 5.11611H14.208V12.1731H14.21ZM11.259 9.00511C11.259 7.68611 10.274 7.13311 9.458 7.13311C8.57 7.13311 7.587 7.85211 7.587 9.96511C7.587 11.6451 8.331 12.5811 9.458 12.5811C10.25 12.5811 11.259 12.0771 11.259 10.6851V9.00511Z" fill="#575DFB"/>
</svg>
