<svg width="26" height="26" viewBox="0 0 26 26" fill="none" xmlns="http://www.w3.org/2000/svg">
<path d="M22.75 20.5833V21.6666H3.25V20.5833L5.41667 18.4166V11.9166C5.41667 8.55829 7.61583 5.60079 10.8333 4.64746V4.33329C10.8333 3.75866 11.0616 3.20756 11.4679 2.80123C11.8743 2.3949 12.4254 2.16663 13 2.16663C13.5746 2.16663 14.1257 2.3949 14.5321 2.80123C14.9384 3.20756 15.1667 3.75866 15.1667 4.33329V4.64746C18.3842 5.60079 20.5833 8.55829 20.5833 11.9166V18.4166L22.75 20.5833ZM15.1667 22.75C15.1667 23.3246 14.9384 23.8757 14.5321 24.282C14.1257 24.6884 13.5746 24.9166 13 24.9166C12.4254 24.9166 11.8743 24.6884 11.4679 24.282C11.0616 23.8757 10.8333 23.3246 10.8333 22.75" fill="black"/>
</svg>
