<svg width="24" height="24" viewBox="0 0 24 24" fill="none" xmlns="http://www.w3.org/2000/svg">
<path fill-rule="evenodd" clip-rule="evenodd" d="M16.1369 4.728L17.9669 6.558C20.6559 9.248 21.9999 10.592 21.9999 12.262C21.9999 13.933 20.6559 15.277 17.9669 17.966C15.2769 20.656 13.9329 22 12.2619 22C10.5919 22 9.24687 20.656 6.55787 17.967L4.72787 16.137C3.18287 14.591 2.40987 13.819 2.12287 12.816C1.83487 11.813 2.08087 10.748 2.57287 8.619L2.85587 7.391C3.26887 5.599 3.47587 4.703 4.08887 4.089C4.70287 3.476 5.59887 3.269 7.39087 2.856L8.61887 2.572C10.7489 2.081 11.8129 1.835 12.8159 2.122C13.8189 2.41 14.5919 3.183 16.1369 4.728ZM11.1459 14.328C10.4729 13.656 10.4779 12.69 10.8809 11.925C10.7811 11.7809 10.735 11.6064 10.7504 11.4318C10.7659 11.2572 10.8421 11.0936 10.9657 10.9693C11.0892 10.845 11.2524 10.7679 11.4269 10.7514C11.6014 10.7349 11.7762 10.7801 11.9209 10.879C12.2609 10.699 12.6339 10.603 13.0059 10.607C13.2048 10.6089 13.3948 10.6897 13.5341 10.8316C13.6735 10.9736 13.7507 11.1651 13.7489 11.364C13.747 11.5629 13.6662 11.7529 13.5242 11.8923C13.3823 12.0316 13.1908 12.1089 12.9919 12.107C12.7603 12.1156 12.5415 12.2151 12.3829 12.384C11.9959 12.771 12.0969 13.159 12.2059 13.268C12.3159 13.377 12.7029 13.478 13.0899 13.091C13.8739 12.307 15.2279 12.047 16.0949 12.914C16.7679 13.587 16.7629 14.553 16.3599 15.318C16.459 15.4621 16.5046 15.6364 16.4889 15.8106C16.4731 15.9849 16.3969 16.1481 16.2735 16.2721C16.1501 16.3961 15.9873 16.473 15.8131 16.4896C15.639 16.5062 15.4645 16.4614 15.3199 16.363C14.8711 16.6091 14.3506 16.6912 13.8479 16.595C13.6529 16.555 13.4819 16.4391 13.3724 16.273C13.2628 16.1068 13.2238 15.9039 13.2639 15.709C13.3039 15.5141 13.4198 15.343 13.5859 15.2335C13.7521 15.124 13.9549 15.085 14.1499 15.125C14.3269 15.162 14.6129 15.104 14.8579 14.859C15.2449 14.471 15.1439 14.084 15.0349 13.975C14.9249 13.866 14.5379 13.765 14.1509 14.152C13.3669 14.936 12.0129 15.196 11.1459 14.328ZM10.0199 10.293C10.2056 10.1072 10.3528 9.88674 10.4533 9.64406C10.5538 9.40139 10.6055 9.1413 10.6054 8.87865C10.6054 8.616 10.5536 8.35593 10.453 8.11329C10.3525 7.87065 10.2051 7.65019 10.0194 7.4645C9.83361 7.27881 9.6131 7.13153 9.37043 7.03106C9.12775 6.93059 8.86766 6.8789 8.60501 6.87895C8.34236 6.879 8.08229 6.93078 7.83965 7.03133C7.59701 7.13189 7.37656 7.27925 7.19087 7.465C6.81585 7.84015 6.60522 8.34891 6.60531 8.87935C6.60541 9.4098 6.81622 9.91848 7.19137 10.2935C7.56652 10.6685 8.07527 10.8791 8.60572 10.8791C9.13617 10.879 9.64485 10.6681 10.0199 10.293Z" fill="#575DFB"/>
</svg>
