<svg width="26" height="24" viewBox="0 0 26 24" fill="none" xmlns="http://www.w3.org/2000/svg">
<path d="M20.8 19.2C19.357 19.2 18.2 20.268 18.2 21.6C18.2 22.2365 18.4739 22.847 18.9615 23.2971C19.4491 23.7471 20.1104 24 20.8 24C21.4896 24 22.1509 23.7471 22.6385 23.2971C23.1261 22.847 23.4 22.2365 23.4 21.6C23.4 20.9635 23.1261 20.353 22.6385 19.9029C22.1509 19.4529 21.4896 19.2 20.8 19.2ZM0 0V2.4H2.6L7.28 11.508L5.512 14.448C5.317 14.784 5.2 15.18 5.2 15.6C5.2 16.2365 5.47393 16.847 5.96152 17.2971C6.44912 17.7471 7.11044 18 7.8 18H23.4V15.6H8.346C8.2598 15.6 8.17714 15.5684 8.11619 15.5121C8.05524 15.4559 8.021 15.3796 8.021 15.3C8.021 15.24 8.034 15.192 8.06 15.156L9.23 13.2H18.915C19.89 13.2 20.748 12.696 21.19 11.964L25.844 4.2C25.935 4.008 26 3.804 26 3.6C26 3.28174 25.863 2.97652 25.6192 2.75147C25.3754 2.52643 25.0448 2.4 24.7 2.4H5.473L4.251 0M7.8 19.2C6.357 19.2 5.2 20.268 5.2 21.6C5.2 22.2365 5.47393 22.847 5.96152 23.2971C6.44912 23.7471 7.11044 24 7.8 24C8.48956 24 9.15088 23.7471 9.63848 23.2971C10.1261 22.847 10.4 22.2365 10.4 21.6C10.4 20.9635 10.1261 20.353 9.63848 19.9029C9.15088 19.4529 8.48956 19.2 7.8 19.2Z" fill="black"/>
</svg>
