<svg width="26" height="26" viewBox="0 0 26 26" fill="none" xmlns="http://www.w3.org/2000/svg">
<g clip-path="url(#clip0_83_100)">
<path d="M23.8334 13.7222C23.7384 13.7227 23.6442 13.7045 23.5562 13.6686C23.4682 13.6326 23.3881 13.5797 23.3207 13.5127L13.0001 3.18496L2.67955 13.5127C2.54138 13.6311 2.36366 13.6929 2.1819 13.6859C2.00013 13.6788 1.82771 13.6035 1.69908 13.4749C1.57046 13.3462 1.49511 13.1738 1.48809 12.9921C1.48107 12.8103 1.54289 12.6326 1.66121 12.4944L12.4945 1.66107C12.6299 1.52655 12.8129 1.45105 13.0037 1.45105C13.1945 1.45105 13.3776 1.52655 13.5129 1.66107L24.3462 12.4944C24.4456 12.5958 24.5129 12.7242 24.5397 12.8636C24.5665 13.0031 24.5516 13.1473 24.4969 13.2783C24.4422 13.4093 24.3501 13.5213 24.2321 13.6002C24.1141 13.6792 23.9754 13.7216 23.8334 13.7222Z" fill="black"/>
<path d="M12.9999 5.6261L4.33325 14.3217V23.1111C4.33325 23.4942 4.48543 23.8616 4.75632 24.1325C5.02721 24.4034 5.39461 24.5555 5.7777 24.5555H10.8333V17.3333H15.1666V24.5555H20.2221C20.6052 24.5555 20.9726 24.4034 21.2435 24.1325C21.5144 23.8616 21.6666 23.4942 21.6666 23.1111V14.2711L12.9999 5.6261Z" fill="black"/>
</g>
<defs>
<clipPath id="clip0_83_100">
<rect width="26" height="26" fill="white"/>
</clipPath>
</defs>
</svg>
