<svg width="24" height="26" viewBox="0 0 24 26" fill="none" xmlns="http://www.w3.org/2000/svg">
<path d="M12 12.2C13.1714 12.2 14.3166 11.8716 15.2907 11.2562C16.2647 10.6409 17.0239 9.76629 17.4722 8.74303C17.9205 7.71976 18.0378 6.59379 17.8092 5.5075C17.5807 4.4212 17.0166 3.42338 16.1882 2.6402C15.3599 1.85703 14.3045 1.32368 13.1555 1.1076C12.0065 0.891528 10.8156 1.00243 9.73332 1.42628C8.65102 1.85013 7.72596 2.56789 7.07513 3.48881C6.42429 4.40972 6.07691 5.49243 6.07691 6.6C6.07691 8.08521 6.70094 9.5096 7.81174 10.5598C8.92253 11.61 10.4291 12.2 12 12.2ZM12 2.6C12.8367 2.6 13.6547 2.8346 14.3505 3.27412C15.0462 3.71365 15.5885 4.33836 15.9087 5.06927C16.2289 5.80017 16.3127 6.60444 16.1494 7.38036C15.9862 8.15629 15.5833 8.86902 14.9916 9.42843C14.3999 9.98784 13.646 10.3688 12.8254 10.5231C12.0047 10.6775 11.154 10.5983 10.3809 10.2955C9.60786 9.99277 8.94711 9.48008 8.48223 8.82228C8.01734 8.16449 7.76921 7.39113 7.76921 6.6C7.76921 5.53914 8.21495 4.52172 9.00837 3.77158C9.8018 3.02143 10.8779 2.6 12 2.6Z" fill="#575DFB"/>
<path d="M22.5515 18.096C21.1945 16.74 19.5593 15.6599 17.7458 14.9218C15.9323 14.1836 13.9786 13.8029 12.0042 13.8029C10.0298 13.8029 8.07611 14.1836 6.26261 14.9218C4.44911 15.6599 2.81389 16.74 1.45692 18.096C1.16273 18.3931 0.999334 18.785 1 19.192V23.4C1 23.8243 1.1783 24.2313 1.49567 24.5314C1.81304 24.8314 2.24348 25 2.69231 25H21.3077C21.7565 25 22.1869 24.8314 22.5043 24.5314C22.8217 24.2313 23 23.8243 23 23.4V19.192C23.0029 18.7861 22.8426 18.3943 22.5515 18.096ZM21.3077 23.4H2.69231V19.184C3.8915 17.9901 5.33508 17.0395 6.93522 16.3898C8.53535 15.7402 10.2586 15.4052 12 15.4052C13.7414 15.4052 15.4646 15.7402 17.0647 16.3898C18.6649 17.0395 20.1085 17.9901 21.3077 19.184V23.4Z" fill="#575DFB"/>
<path d="M12 12.2C13.1714 12.2 14.3166 11.8716 15.2907 11.2562C16.2647 10.6409 17.0239 9.76629 17.4722 8.74303C17.9205 7.71976 18.0378 6.59379 17.8092 5.5075C17.5807 4.4212 17.0166 3.42338 16.1882 2.6402C15.3599 1.85703 14.3045 1.32368 13.1555 1.1076C12.0065 0.891528 10.8156 1.00243 9.73332 1.42628C8.65102 1.85013 7.72596 2.56789 7.07513 3.48881C6.42429 4.40972 6.07691 5.49243 6.07691 6.6C6.07691 8.08521 6.70094 9.5096 7.81174 10.5598C8.92253 11.61 10.4291 12.2 12 12.2ZM12 2.6C12.8367 2.6 13.6547 2.8346 14.3505 3.27412C15.0462 3.71365 15.5885 4.33836 15.9087 5.06927C16.2289 5.80017 16.3127 6.60444 16.1494 7.38036C15.9862 8.15629 15.5833 8.86902 14.9916 9.42843C14.3999 9.98784 13.646 10.3688 12.8254 10.5231C12.0047 10.6775 11.154 10.5983 10.3809 10.2955C9.60786 9.99277 8.94711 9.48008 8.48223 8.82228C8.01734 8.16449 7.76921 7.39113 7.76921 6.6C7.76921 5.53914 8.21495 4.52172 9.00837 3.77158C9.8018 3.02143 10.8779 2.6 12 2.6Z" stroke="#575DFB" stroke-width="0.6"/>
<path d="M22.5515 18.096C21.1945 16.74 19.5593 15.6599 17.7458 14.9218C15.9323 14.1836 13.9786 13.8029 12.0042 13.8029C10.0298 13.8029 8.07611 14.1836 6.26261 14.9218C4.44911 15.6599 2.81389 16.74 1.45692 18.096C1.16273 18.3931 0.999334 18.785 1 19.192V23.4C1 23.8243 1.1783 24.2313 1.49567 24.5314C1.81304 24.8314 2.24348 25 2.69231 25H21.3077C21.7565 25 22.1869 24.8314 22.5043 24.5314C22.8217 24.2313 23 23.8243 23 23.4V19.192C23.0029 18.7861 22.8426 18.3943 22.5515 18.096ZM21.3077 23.4H2.69231V19.184C3.8915 17.9901 5.33508 17.0395 6.93522 16.3898C8.53535 15.7402 10.2586 15.4052 12 15.4052C13.7414 15.4052 15.4646 15.7402 17.0647 16.3898C18.6649 17.0395 20.1085 17.9901 21.3077 19.184V23.4Z" stroke="#575DFB" stroke-width="0.6"/>
</svg>
